<svg xmlns="http://www.w3.org/2000/svg" xmlns:xlink="http://www.w3.org/1999/xlink" width="1080" zoomAndPan="magnify" viewBox="0 0 810 809.999993" height="1080" preserveAspectRatio="xMidYMid meet" version="1.0"><defs><g/><clipPath id="84641cb7f4"><path d="M 81 283.5 L 202.5 283.5 L 202.5 526.5 L 81 526.5 Z M 81 283.5 " clip-rule="nonzero"/></clipPath><clipPath id="3c20dc90c5"><path d="M 226.648438 283.5 L 310.050781 283.5 L 310.050781 526.5 L 226.648438 526.5 Z M 226.648438 283.5 " clip-rule="nonzero"/></clipPath><clipPath id="3cfde27889"><path d="M 479.550781 283.5 L 557.25 283.5 L 557.25 526.5 L 479.550781 526.5 Z M 479.550781 283.5 " clip-rule="nonzero"/></clipPath><clipPath id="1e29f4ae38"><path d="M 334.050781 283.5 L 455.550781 283.5 L 455.550781 526.5 L 334.050781 526.5 Z M 334.050781 283.5 " clip-rule="nonzero"/></clipPath><clipPath id="099c7f0e99"><path d="M 581.25 283.5 L 702.75 283.5 L 702.75 526.5 L 581.25 526.5 Z M 581.25 283.5 " clip-rule="nonzero"/></clipPath></defs><rect x="-81" width="972" fill="#ffffff" y="-80.999999" height="971.999992" fill-opacity="1"/><rect x="-81" width="972" fill="#ffffff" y="-80.999999" height="971.999992" fill-opacity="1"/><g clip-path="url(#84641cb7f4)"><path fill="#aabf5d" d="M 81 283.5 L 202.5 283.5 L 202.5 526.5 L 81 526.5 Z M 81 283.5 " fill-opacity="1" fill-rule="nonzero"/></g><g fill="#000000" fill-opacity="1"><g transform="translate(96.668355, 517.388489)"><g><path d="M 88.953125 -186.894531 L 44.328125 -186.894531 L 44.328125 -129.089844 L 74.277344 -129.089844 L 74.277344 -95.84375 L 44.328125 -95.84375 L 44.328125 0 L 11.980469 0 L 11.980469 -220.140625 L 88.953125 -220.140625 Z M 88.953125 -186.894531 "/></g></g></g><g clip-path="url(#3c20dc90c5)"><path fill="#6fb9c7" d="M 226.648438 283.5 L 310.050781 283.5 L 310.050781 526.5 L 226.648438 526.5 Z M 226.648438 283.5 " fill-opacity="1" fill-rule="nonzero"/></g><g fill="#000000" fill-opacity="1"><g transform="translate(243.008955, 519.798771)"><g><path d="M 10.90625 -223.730469 L 35.390625 -223.730469 L 35.390625 -199.25 L 10.90625 -199.25 Z M 9.695312 -178.160156 L 35.875 -178.160156 L 35.875 0 L 9.695312 0 Z M 9.695312 -178.160156 "/></g></g></g><g clip-path="url(#3cfde27889)"><path fill="#dc5460" d="M 479.550781 283.5 L 557.25 283.5 L 557.25 526.5 L 479.550781 526.5 Z M 479.550781 283.5 " fill-opacity="1" fill-rule="nonzero"/></g><g fill="#000000" fill-opacity="1"><g transform="translate(493.058955, 519.798771)"><g><path d="M 10.90625 -223.730469 L 35.390625 -223.730469 L 35.390625 -199.25 L 10.90625 -199.25 Z M 9.695312 -178.160156 L 35.875 -178.160156 L 35.875 0 L 9.695312 0 Z M 9.695312 -178.160156 "/></g></g></g><g clip-path="url(#1e29f4ae38)"><path fill="#ebc266" d="M 334.050781 283.5 L 455.550781 283.5 L 455.550781 526.5 L 334.050781 526.5 Z M 334.050781 283.5 " fill-opacity="1" fill-rule="nonzero"/></g><g fill="#000000" fill-opacity="1"><g transform="translate(338.638698, 517.388489)"><g><path d="M 44.328125 -220.140625 L 44.328125 -143.167969 L 45.527344 -143.167969 L 47.023438 -146.761719 L 73.980469 -220.140625 L 105.429688 -220.140625 L 75.777344 -147.660156 L 109.320312 0 L 77.871094 0 L 55.410156 -95.84375 L 54.511719 -100.335938 L 53.613281 -100.335938 L 51.816406 -95.84375 L 44.328125 -77.871094 L 44.328125 0 L 11.980469 0 L 11.980469 -220.140625 Z M 44.328125 -220.140625 "/></g></g></g><g clip-path="url(#099c7f0e99)"><path fill="#b07da4" d="M 581.25 283.5 L 702.75 283.5 L 702.75 526.5 L 581.25 526.5 Z M 581.25 283.5 " fill-opacity="1" fill-rule="nonzero"/></g><g fill="#000000" fill-opacity="1"><g transform="translate(587.937214, 517.388489)"><g><path d="M 69.785156 0 L 53.011719 -92.847656 L 44.328125 -92.847656 L 44.328125 0 L 11.980469 0 L 11.980469 -220.140625 L 44.328125 -220.140625 C 82.964844 -220.140625 99.4375 -198.277344 99.4375 -156.644531 C 99.4375 -134.78125 93.746094 -115.011719 81.46875 -106.625 L 102.132812 0 Z M 44.328125 -122.800781 C 48.820312 -122.800781 54.8125 -123.398438 59.601562 -127.589844 C 64.394531 -131.785156 68.289062 -139.871094 68.289062 -155.445312 C 68.289062 -171.019531 64.394531 -179.40625 59.601562 -183.601562 C 54.8125 -187.792969 48.820312 -188.09375 44.328125 -188.09375 Z M 44.328125 -122.800781 "/></g></g></g><g fill="#000000" fill-opacity="1"><g transform="translate(86.655182, 588.36467)"><g><path d="M 4.078125 0 L 4.078125 -30.4375 L 8.203125 -30.4375 L 8.203125 0 Z M 4.21875 -34.671875 L 4.21875 -38.375 L 8.09375 -38.375 L 8.09375 -34.671875 Z M 4.21875 -34.671875 "/></g></g></g><g fill="#000000" fill-opacity="1"><g transform="translate(108.143726, 588.36467)"><g><path d="M 23.890625 0 L 11.734375 -14.6875 L 7.75 -11.65625 L 7.75 0 L 3.625 0 L 3.625 -30.4375 L 7.75 -30.4375 L 7.75 -15.1875 L 22.421875 -30.4375 L 27.28125 -30.4375 L 14.3125 -17.21875 L 29 0 Z M 23.890625 0 "/></g></g></g><g fill="#000000" fill-opacity="1"><g transform="translate(146.843486, 588.36467)"><g><path d="M 4.078125 0 L 4.078125 -30.4375 L 8.203125 -30.4375 L 8.203125 0 Z M 4.21875 -34.671875 L 4.21875 -38.375 L 8.09375 -38.375 L 8.09375 -34.671875 Z M 4.21875 -34.671875 "/></g></g></g><g fill="#000000" fill-opacity="1"><g transform="translate(168.332027, 588.36467)"><g><path d="M 23.375 0 L 7.078125 -25.921875 L 7.1875 -23.828125 L 7.296875 -20.21875 L 7.296875 0 L 3.625 0 L 3.625 -30.4375 L 8.421875 -30.4375 L 24.875 -4.34375 C 24.707031 -7.164062 24.625 -9.207031 24.625 -10.46875 L 24.625 -30.4375 L 28.34375 -30.4375 L 28.34375 0 Z M 23.375 0 "/></g></g></g><g fill="#000000" fill-opacity="1"><g transform="translate(209.472025, 588.36467)"><g><path d="M 17.109375 -27.515625 C 13.734375 -27.515625 11.109375 -26.429688 9.234375 -24.265625 C 7.367188 -22.097656 6.4375 -19.128906 6.4375 -15.359375 C 6.4375 -11.628906 7.410156 -8.628906 9.359375 -6.359375 C 11.316406 -4.085938 13.957031 -2.953125 17.28125 -2.953125 C 21.539062 -2.953125 24.742188 -5.0625 26.890625 -9.28125 L 30.265625 -7.609375 C 29.003906 -4.984375 27.238281 -2.984375 24.96875 -1.609375 C 22.707031 -0.242188 20.078125 0.4375 17.078125 0.4375 C 14.015625 0.4375 11.363281 -0.195312 9.125 -1.46875 C 6.882812 -2.75 5.175781 -4.570312 4 -6.9375 C 2.832031 -9.3125 2.25 -12.117188 2.25 -15.359375 C 2.25 -20.210938 3.554688 -24.015625 6.171875 -26.765625 C 8.796875 -29.515625 12.425781 -30.890625 17.0625 -30.890625 C 20.300781 -30.890625 23.007812 -30.253906 25.1875 -28.984375 C 27.363281 -27.710938 28.960938 -25.832031 29.984375 -23.34375 L 26.0625 -22.046875 C 25.363281 -23.816406 24.234375 -25.171875 22.671875 -26.109375 C 21.109375 -27.046875 19.253906 -27.515625 17.109375 -27.515625 Z M 17.109375 -27.515625 "/></g></g></g><g fill="#000000" fill-opacity="1"><g transform="translate(250.612023, 588.36467)"><g><path d="M 4.078125 0 L 4.078125 -30.4375 L 8.203125 -30.4375 L 8.203125 0 Z M 4.21875 -34.671875 L 4.21875 -38.375 L 8.09375 -38.375 L 8.09375 -34.671875 Z M 4.21875 -34.671875 "/></g></g></g><g fill="#000000" fill-opacity="1"><g transform="translate(272.10057, 588.36467)"><g/></g></g><g fill="#000000" fill-opacity="1"><g transform="translate(293.589117, 588.36467)"><g><path d="M 16.78125 -12.609375 L 16.78125 0 L 12.671875 0 L 12.671875 -12.609375 L 0.96875 -30.4375 L 5.5 -30.4375 L 14.78125 -15.9375 L 24 -30.4375 L 28.53125 -30.4375 Z M 16.78125 -12.609375 "/></g></g></g><g fill="#000000" fill-opacity="1"><g transform="translate(332.288868, 588.36467)"><g><path d="M 15.78125 0.4375 C 13.289062 0.4375 11.117188 -0.015625 9.265625 -0.921875 C 7.410156 -1.835938 5.96875 -3.15625 4.9375 -4.875 C 3.914062 -6.601562 3.40625 -8.664062 3.40625 -11.0625 L 3.40625 -30.4375 L 7.53125 -30.4375 L 7.53125 -11.40625 C 7.53125 -8.625 8.234375 -6.515625 9.640625 -5.078125 C 11.054688 -3.640625 13.097656 -2.921875 15.765625 -2.921875 C 18.503906 -2.921875 20.628906 -3.664062 22.140625 -5.15625 C 23.660156 -6.644531 24.421875 -8.820312 24.421875 -11.6875 L 24.421875 -30.4375 L 28.53125 -30.4375 L 28.53125 -11.453125 C 28.53125 -8.984375 28.007812 -6.851562 26.96875 -5.0625 C 25.925781 -3.28125 24.445312 -1.914062 22.53125 -0.96875 C 20.625 -0.03125 18.375 0.4375 15.78125 0.4375 Z M 18.421875 -33.046875 L 18.421875 -37.015625 L 21.9375 -37.015625 L 21.9375 -33.046875 Z M 9.90625 -33.046875 L 9.90625 -37.015625 L 13.46875 -37.015625 L 13.46875 -33.046875 Z M 9.90625 -33.046875 "/></g></g></g><g fill="#000000" fill-opacity="1"><g transform="translate(373.428866, 588.36467)"><g><path d="M 25.640625 0 L 1.40625 0 L 1.40625 -3.09375 L 19.9375 -27.0625 L 2.984375 -27.0625 L 2.984375 -30.4375 L 24.625 -30.4375 L 24.625 -27.4375 L 6.09375 -3.375 L 25.640625 -3.375 Z M 25.640625 0 "/></g></g></g><g fill="#000000" fill-opacity="1"><g transform="translate(409.645203, 588.36467)"><g><path d="M 16.78125 -12.609375 L 16.78125 0 L 12.671875 0 L 12.671875 -12.609375 L 0.96875 -30.4375 L 5.5 -30.4375 L 14.78125 -15.9375 L 24 -30.4375 L 28.53125 -30.4375 Z M 16.78125 -12.609375 "/></g></g></g><g fill="#000000" fill-opacity="1"><g transform="translate(448.344953, 588.36467)"><g><path d="M 4.078125 0 L 4.078125 -30.4375 L 8.203125 -30.4375 L 8.203125 0 Z M 4.078125 0 "/></g></g></g><g fill="#000000" fill-opacity="1"><g transform="translate(469.833501, 588.36467)"><g><path d="M 3.625 0 L 3.625 -30.4375 L 7.75 -30.4375 L 7.75 -3.375 L 23.125 -3.375 L 23.125 0 Z M 3.625 0 "/></g></g></g><g fill="#000000" fill-opacity="1"><g transform="translate(503.631175, 588.36467)"><g><path d="M 25.203125 0 L 21.734375 -8.90625 L 7.859375 -8.90625 L 4.359375 0 L 0.09375 0 L 12.5 -30.4375 L 17.1875 -30.4375 L 29.421875 0 Z M 14.796875 -27.328125 L 14.59375 -26.71875 C 14.238281 -25.519531 13.707031 -23.988281 13 -22.125 L 9.109375 -12.109375 L 20.5 -12.109375 L 16.59375 -22.15625 C 16.1875 -23.15625 15.78125 -24.28125 15.375 -25.53125 Z M 14.796875 -27.328125 "/></g></g></g><g fill="#000000" fill-opacity="1"><g transform="translate(542.330926, 588.36467)"><g/></g></g><g fill="#000000" fill-opacity="1"><g transform="translate(563.81945, 588.36467)"><g><path d="M 29.828125 -15.53125 C 29.828125 -12.394531 29.210938 -9.648438 27.984375 -7.296875 C 26.765625 -4.941406 25.03125 -3.132812 22.78125 -1.875 C 20.539062 -0.625 17.953125 0 15.015625 0 L 3.625 0 L 3.625 -30.4375 L 13.6875 -30.4375 C 18.84375 -30.4375 22.820312 -29.140625 25.625 -26.546875 C 28.425781 -23.960938 29.828125 -20.289062 29.828125 -15.53125 Z M 25.6875 -15.53125 C 25.6875 -19.300781 24.648438 -22.175781 22.578125 -24.15625 C 20.515625 -26.132812 17.523438 -27.125 13.609375 -27.125 L 7.75 -27.125 L 7.75 -3.296875 L 14.53125 -3.296875 C 16.769531 -3.296875 18.734375 -3.785156 20.421875 -4.765625 C 22.109375 -5.742188 23.40625 -7.15625 24.3125 -9 C 25.226562 -10.84375 25.6875 -13.019531 25.6875 -15.53125 Z M 25.6875 -15.53125 "/></g></g></g><g fill="#000000" fill-opacity="1"><g transform="translate(604.959448, 588.36467)"><g><path d="M 25.203125 0 L 21.734375 -8.90625 L 7.859375 -8.90625 L 4.359375 0 L 0.09375 0 L 12.5 -30.4375 L 17.1875 -30.4375 L 29.421875 0 Z M 14.796875 -27.328125 L 14.59375 -26.71875 C 14.238281 -25.519531 13.707031 -23.988281 13 -22.125 L 9.109375 -12.109375 L 20.5 -12.109375 L 16.59375 -22.15625 C 16.1875 -23.15625 15.78125 -24.28125 15.375 -25.53125 Z M 14.796875 -27.328125 "/></g></g></g><g fill="#000000" fill-opacity="1"><g transform="translate(643.659198, 588.36467)"><g><path d="M 4.078125 0 L 4.078125 -30.4375 L 8.203125 -30.4375 L 8.203125 0 Z M 4.21875 -34.671875 L 4.21875 -38.375 L 8.09375 -38.375 L 8.09375 -34.671875 Z M 4.21875 -34.671875 "/></g></g></g><g fill="#000000" fill-opacity="1"><g transform="translate(665.147722, 588.36467)"><g><path d="M 25.140625 0 L 17.234375 -12.640625 L 7.75 -12.640625 L 7.75 0 L 3.625 0 L 3.625 -30.4375 L 17.953125 -30.4375 C 21.378906 -30.4375 24.023438 -29.664062 25.890625 -28.125 C 27.753906 -26.59375 28.6875 -24.460938 28.6875 -21.734375 C 28.6875 -19.472656 28.023438 -17.570312 26.703125 -16.03125 C 25.390625 -14.488281 23.570312 -13.515625 21.25 -13.109375 L 29.890625 0 Z M 24.53125 -21.6875 C 24.53125 -23.457031 23.925781 -24.804688 22.71875 -25.734375 C 21.519531 -26.660156 19.789062 -27.125 17.53125 -27.125 L 7.75 -27.125 L 7.75 -15.890625 L 17.71875 -15.890625 C 19.882812 -15.890625 21.5625 -16.394531 22.75 -17.40625 C 23.9375 -18.425781 24.53125 -19.851562 24.53125 -21.6875 Z M 24.53125 -21.6875 "/></g></g></g></svg>